<?xml version="1.0" encoding="UTF-8"?>
<svg id="Layer_2" xmlns="http://www.w3.org/2000/svg" viewBox="0 0 66.47 75.38">
  <defs>
    <style>
      .cls-1 {
        fill: #f2385a;
      }
    </style>
  </defs>
  <g id="Objects">
    <g>
      <path class="cls-1" d="M60.04,20.79c-.11-.16-.07-.3-.09-.5-.76-6.68-6.42-11.87-13.3-11.87-2.37,0-4.6.62-6.53,1.71-.26.15-.45.32-.73.24-.26-.08-.26-.28-.39-.52C36.09,4.01,30.08,0,23.13,0,13.36,0,5.44,7.92,5.44,17.69c0,.92.07,1.82.21,2.7.04.28.14.5.02.75-.07.16-.18.25-.33.34-3.2,1.95-5.33,5.46-5.33,9.48,0,6.12,4.96,11.09,11.09,11.09h44.3c6.12,0,11.09-4.96,11.09-11.09,0-4.35-2.51-8.11-6.16-9.92-.1-.05-.21-.15-.27-.25Z"/>
      <g>
        <path class="cls-1" d="M22.24,48.85c-1.26,1.07-.86,3.16-1.05,3.32-.17.14-2.13-.61-3.44.51-1.28,1.09-1.43,3.04-.41,4.37.58.76,1.28,1.11,2.03,1.33,1.5.44,6.41.39,7.01-.12.62-.52,1.43-5.33,1.23-6.89-.1-.78-.33-1.53-.98-2.22-1.16-1.22-3.1-1.39-4.38-.3"/>
        <path class="cls-1" d="M44.57,48.62c-1.37.98-1.15,3.14-1.36,3.28-.18.13-2.11-.81-3.55.22-1.4,1-1.71,2.96-.79,4.41.52.82,1.2,1.24,1.95,1.52,1.49.57,6.48.95,7.14.48.67-.48,1.91-5.29,1.85-6.9-.03-.8-.2-1.58-.81-2.34-1.07-1.34-3.03-1.68-4.43-.68"/>
        <path class="cls-1" d="M38.73,65.29c-1.35,1.01-1.08,3.16-1.28,3.31-.18.13-2.13-.76-3.54.3-1.37,1.03-1.64,3-.69,4.43.54.81,1.23,1.21,1.98,1.48,1.5.54,6.5.8,7.15.32.66-.5,1.79-5.34,1.69-6.94-.05-.8-.24-1.57-.86-2.32-1.1-1.32-3.07-1.61-4.44-.58"/>
      </g>
    </g>
  </g>
</svg>