<?xml version="1.0" encoding="UTF-8"?>
<svg id="Layer_2" xmlns="http://www.w3.org/2000/svg" viewBox="0 0 83.5 74.37">
  <defs>
    <style>
      .cls-1 {
        fill: #f2385a;
      }
    </style>
  </defs>
  <g id="Objects">
    <g>
      <g>
        <path class="cls-1" d="M21.11,53.61l6.66,11.6c.37.65,1.05,1.01,1.75,1.01.34,0,.69-.09,1-.27.97-.56,1.3-1.79.75-2.76l-6.66-11.6c-.56-.97-1.79-1.3-2.76-.75-.97.55-1.3,1.79-.75,2.76Z"/>
        <path class="cls-1" d="M52.97,65.95c.32.18.66.27,1,.27.7,0,1.38-.36,1.75-1.01l6.66-11.6c.56-.97.22-2.2-.75-2.76-.97-.56-2.2-.22-2.76.75l-6.66,11.6c-.56.97-.22,2.2.75,2.76Z"/>
        <path class="cls-1" d="M41.75,65.59c1.11,0,2.02-.9,2.02-2.02v-11.6c0-1.11-.9-2.02-2.02-2.02s-2.02.9-2.02,2.02v11.6c0,1.11.9,2.02,2.02,2.02Z"/>
      </g>
      <path class="cls-1" d="M64.51,13.81c-.4,0-.8.02-1.2.04-.06,0-.11,0-.16-.03-.05-.03-.06-.08-.09-.13C59.37,5.62,51.22,0,41.75,0s-17.53,5.56-21.26,13.57c-.05.1-.08.18-.18.23-.08.05-.15.05-.24.04-.36-.02-.72-.04-1.09-.04C8.5,13.81,0,22.31,0,32.8c0,4.03,1.06,7.64,2.98,10.85,3.97,6.63,14.44,27.54,14.44,27.54.95,1.82,3.21,3.19,5.26,3.19h38.14c2.05,0,4.31-1.37,5.26-3.19,0,0,13.83-27.1,14.03-27.56,1.47-3.52,3.39-6.8,3.39-10.83,0-10.49-8.5-18.99-18.99-18.99ZM28.12,21.9c.2-3.76,3.27-6.86,7.03-6.86s6.12,4.12,6.6,4.12c.56,0,2.9-4.12,6.6-4.12s6.83,3.1,7.03,6.86c.11,2.12-.57,3.73-1.53,5.2-1.94,2.95-10.28,9.95-12.09,9.95s-10.19-7.03-12.11-9.95c-.96-1.46-1.65-3.08-1.53-5.2ZM75.42,44.52l-12.92,24.8c-.25.49-1.13,1.02-1.68,1.02H22.68c-.55,0-1.43-.53-1.68-1.02l-12.95-24.86s-.28-.35.37-.35h66.66c.56,0,.33.41.33.41Z"/>
    </g>
  </g>
</svg>