<?xml version="1.0" encoding="UTF-8"?>
<svg id="Layer_2" xmlns="http://www.w3.org/2000/svg" viewBox="0 0 28.26 76.21">
  <defs>
    <style>
      .cls-1 {
        fill: #f2385a;
      }
    </style>
  </defs>
  <g id="Objects">
    <path class="cls-1" d="M19.74,19.43c-.45-1.21-.82-6.8-.93-13.07,0-.02.03-.09.12-.09.5-.03.77-.42.77-.93V.95c0-.52-.43-.95-.95-.95h-9.24c-.52,0-.95.43-.95.95v4.39c0,.5.25.89.75.92.16,0,.15.11.14.16-.11,6.34-.48,11.8-.93,13.01C5.88,26.56,0,25.94,0,34.49v30.57c0,11.76,5.92,11.17,14.13,11.12,8.21.05,14.13.65,14.13-11.12v-30.57c0-8.55-5.88-7.93-8.52-15.06ZM5.46,49.82c-.69-1.05-1.18-2.2-1.1-3.72.14-2.69,2.34-4.91,5.04-4.91,2.05,0,3.46,1.61,4.2,2.45.01.03.01.05.03.08.42.61.82,1.23,1.21,1.86.2.31.39.63.58.95.06.1.12.23.19.35-.47.08-1.14.45-1.45.61-.59.31-1.12.72-1.59,1.18-.34.34-.27.94.15,1.18.91.52,2.13.86,2.9,1.63-.49.21-.98.45-1.44.73-.64.39-1.7.96-1.96,1.71-.31.86.45,1.4.96,1.96.28.32.52.67.72,1.03-1.65-.48-7.13-5.1-8.43-7.08ZM22.8,49.82c-1.12,1.71-5.24,5.31-7.46,6.63-.37-.73-.84-1.4-1.43-1.99-.05-.05-.09-.1-.12-.14.09-.06.21-.17.23-.18.3-.23.61-.45.94-.64.65-.4,1.33-.72,2.05-.97.49-.17.66-.64.45-1.1-.57-1.26-1.78-1.81-2.96-2.37.39-.26.81-.47,1.27-.6.6-.18,1.41-.27,1.57-1.01.16-.71-.48-1.46-.82-2.03-.45-.75-.92-1.47-1.41-2.2.82-.87,2.1-2.03,3.77-2.03,2.69,0,4.89,2.22,5.04,4.91.08,1.52-.41,2.67-1.1,3.72Z"/>
  </g>
</svg>