<?xml version="1.0" encoding="UTF-8"?>
<svg id="Layer_2" xmlns="http://www.w3.org/2000/svg" viewBox="0 0 60.16 83.17">
  <defs>
    <style>
      .cls-1 {
        fill: #f2385a;
      }
    </style>
  </defs>
  <g id="Objects">
    <path class="cls-1" d="M60.16,29.13c0-14.56-12.28-26.51-27.95-27.45,0,0-.15,0-.15-.28,0-.78-.89-1.41-1.98-1.41s-1.98.63-1.98,1.41c0,.3-.16.28-.16.28C12.27,2.62,0,14.57,0,29.13c0,9.19,3.65,13.84,9.76,23.15,1.65,2.52,3.25,4.61,5.08,6.6.16.18.1.3.06.35-1.07,1.42-1.74,3.15-1.84,5.02-.14,2.65.71,4.66,1.92,6.49,2.4,3.65,12.91,12.42,15.12,12.42s12.67-8.75,15.09-12.42c1.21-1.83,2.06-3.84,1.91-6.49-.1-1.8-.72-3.49-1.73-4.88-.05-.07-.18-.21.08-.47,1.84-2,3.4-4.07,5.11-6.71,6.01-9.28,9.6-13.89,9.6-23.06ZM43.13,56.69c-.23.3-.45.21-.54.16-1.26-.73-2.72-1.16-4.27-1.16-4.62,0-7.55,5.15-8.24,5.15-.61,0-3.42-5.15-8.24-5.15-1.49,0-2.88.39-4.11,1.07-.11.06-.26.24-.48,0-1.71-1.85-3.22-3.82-4.81-6.23-5.78-8.81-9.23-12.8-9.23-21.4C3.2,16.28,14.07,5.74,28.04,4.88c.26,0,.25.07.28.11.33.46.99.77,1.76.77s1.45-.32,1.78-.79c.02-.03.05-.11.26-.09,13.97.86,24.84,11.4,24.84,24.25,0,8.58-3.4,12.54-9.09,21.32-1.61,2.48-3.02,4.36-4.74,6.24Z"/>
  </g>
</svg>