<?xml version="1.0" encoding="UTF-8"?>
<svg id="Layer_2" xmlns="http://www.w3.org/2000/svg" viewBox="0 0 70.41 69.35">
  <defs>
    <style>
      .cls-1 {
        fill: #f2385a;
      }
    </style>
  </defs>
  <g id="Objects">
    <g>
      <g>
        <path class="cls-1" d="M37.17,54.27c.1-.14.09-.41-.02-.53l-3.89-4.48c-.33-.38-.5-.88-.47-1.4.03-.52.26-.98.63-1.32l3.95-3.51c.12-.11.16-.37.08-.51,0,0-2.01-3.74-2.82-4.89-.91-1.3-3.21-4.15-6.48-4.15-4.01,0-7.28,3.5-7.49,7.74-.12,2.4.61,4.22,1.64,5.87,1.79,2.87,8.82,9.26,11.85,10.87.07.03.21.06.42-.21l2.59-3.49Z"/>
        <path class="cls-1" d="M49.74,41.22c-.21-4.24-3.49-7.74-7.49-7.74-2.63,0-4.62,2.07-5.82,3.45-.06.07-.19.23.03.55l2.39,4.15c.5.87.31,2.06-.42,2.71l-3.95,3.51s-.06.09-.06.12c0,.03,0,.08.05.13l3.89,4.48c.65.74.69,1.95.1,2.74l-1.65,2.23c-.14.17-.08.17-.03.14,3.24-1.95,9.63-7.85,11.34-10.6,1.03-1.66,1.76-3.47,1.64-5.87Z"/>
      </g>
      <g>
        <rect class="cls-1" x="12.07" width="9.42" height="16.92" rx="3.08" ry="3.08"/>
        <rect class="cls-1" x="48.92" width="9.42" height="16.92" rx="3.08" ry="3.08"/>
        <path class="cls-1" d="M67.74,8.46h-4.52c-.91,0-.84.79-.84.79v4.6c0,3.92-3.19,7.11-7.11,7.11h-3.27c-3.92,0-7.11-3.19-7.11-7.11v-4.66s.05-.73-.74-.73h-17.83c-.81,0-.78.76-.78.76v4.62c0,3.92-3.19,7.11-7.11,7.11h-3.27c-3.92,0-7.11-3.19-7.11-7.11v-4.66s.02-.72-.71-.72H2.67C1.2,8.46,0,9.66,0,11.14l.05,55.53c0,1.47,1.21,2.68,2.68,2.68h64.95c1.47,0,2.68-1.2,2.68-2.68l.05-55.53c0-1.47-1.2-2.68-2.67-2.68ZM65.14,61.44c0,1.47-1.2,2.68-2.68,2.68H7.96c-1.47,0-2.68-1.2-2.68-2.68v-31.43c0-1.47,1.2-2.68,2.68-2.68h54.5c1.47,0,2.68,1.2,2.68,2.68v31.43Z"/>
      </g>
    </g>
  </g>
</svg>