<?xml version="1.0" encoding="UTF-8"?>
<svg id="Layer_2" xmlns="http://www.w3.org/2000/svg" viewBox="0 0 47.23 95.23">
  <defs>
    <style>
      .cls-1 {
        fill: #f2385a;
      }
    </style>
  </defs>
  <g id="Objects">
    <path class="cls-1" d="M47.23,21.16c0-5.57-4.53-10.09-10.09-10.09-4.83,0-8.87,3.41-9.86,7.94-.03.14,0,.43-.37.43h-10.27c-.23,0-.41-.29-.41-.29l-1.85-4.41c1.34-2.21,3.17-6.67,3.4-8.51.15-1.19.08-2.39-.63-3.66C15.9.32,13.08-.66,10.77.48c-2.27,1.12-2.47,4.36-2.81,4.53-.3.15-2.93-1.71-5.31-.54C.34,5.61-.61,8.44.4,10.81c.57,1.34,1.48,2.12,2.51,2.73,1.56.91,6.09,2.15,8.69,2.47,0,0,.83,2.25,1.12,3.11.1.29-.13.34-.13.34-1.26.05-2.13.59-2.83,1.54-.73,1-.92,2.3-.52,3.57.42,1.35,1.52,5.33,1.52,7.59,0,1.56-.7,4.6-1.44,7.82-.73,3.19-1.56,6.8-1.9,9.86-.44,3.97,1.71,7.94,6.39,11.8,3.2,2.64,6.41,4.14,6.56,4.29.08.08.13.22.16.29,2.6,6.28,1.06,20.6-.16,21.81-.46.45-3.19,1.15-5.13,1.77-1.6.51-3.25,1.04-4.51,1.49-2.01.72-2.64,1.06-2.64,1.78,0,1.02,1.13,1.43,4.82,1.76,2.82.26,6.78.39,11.45.39s8.63-.14,11.45-.39c3.7-.34,4.82-.75,4.82-1.76,0-.89-.55-1.15-6.59-3.05-2.16-.68-5.2-1.48-5.67-1.98-.49-.52-1.09-4.12-1.38-9-.19-3.23-.29-9.19,1.21-12.83.03-.07.07-.14.12-.19.18-.17,3.41-1.76,6.6-4.39,4.69-3.86,6.83-7.83,6.38-11.8-.35-3.09-1.2-6.77-1.96-10.02-.68-2.92-1.38-5.93-1.38-7.24,0-.41,0-.55.06-1.04.08-.29.26-.34.37-.36,4.97-.63,8.82-4.88,8.82-10.01ZM13.65,24.04s-.09-.22.14-.22c.18,0,.48,0,.63,0,.18,0,.23.2.23.2l5.4,12.18c.07.16-.07.2-.15.2-2.1.12-3.97.37-5.23.75-.09.03-.25.05-.2-.16.42-2.02.66-3.51.66-4.82,0-2.79-1.05-6.65-1.48-8.12ZM37.14,14.86c3.47,0,6.29,2.82,6.29,6.29,0,2.78-1.81,5.13-4.31,5.97-.1.03-.33.14-.22-.25.27-1.12.46-1.76.62-2.31.38-1.27.18-2.57-.56-3.56-.74-.99-1.92-1.56-3.25-1.56h-4.26c-.28,0-.29-.28-.24-.41.88-2.42,3.19-4.16,5.92-4.16ZM34.94,23.81c.24,0,.2.18.17.28-.47,1.7-1.51,5.74-1.51,8.48,0,1.24.27,2.76.73,4.86.04.24-.13.18-.24.14-2.26-.8-6.45-1.23-10.51-1.27-.05,0-.13,0-.23-.19l-5.08-12.11s-.13-.19.16-.19h16.51Z"/>
  </g>
</svg>