<?xml version="1.0" encoding="UTF-8"?>
<svg id="Layer_2" xmlns="http://www.w3.org/2000/svg" viewBox="0 0 54.32 78.48">
  <defs>
    <style>
      .cls-1 {
        fill: #f2385a;
      }
    </style>
  </defs>
  <g id="Objects">
    <path class="cls-1" d="M52.64,28.92c-1.22,0-1.35-.45-1.35-.85v-3.93C51.29,10.83,40.47,0,27.16,0S3.03,10.83,3.03,24.13v4.23c0,.34-.12.55-1.35.55-.92,0-1.68.76-1.68,1.68v46.2c0,.92.76,1.68,1.68,1.68h50.96c.92,0,1.68-.76,1.68-1.68V30.6c0-.92-.76-1.68-1.68-1.68ZM40.84,56.78c-2.19,3.33-11.62,11.25-13.66,11.25s-11.52-7.95-13.69-11.25c-1.09-1.65-1.86-3.48-1.73-5.88.23-4.24,3.7-7.75,7.95-7.75,4.37,0,6.92,4.66,7.46,4.66.63,0,3.28-4.66,7.46-4.66,4.25,0,7.72,3.51,7.95,7.75.13,2.4-.64,4.22-1.73,5.88ZM43.95,28.92H10.24s-.68.07-.68-.56v-4.22c0-9.71,7.9-17.61,17.61-17.61s17.61,7.9,17.61,17.61v3.98s.16.8-.82.8Z"/>
  </g>
</svg>