<?xml version="1.0" encoding="UTF-8"?>
<svg id="Layer_2" xmlns="http://www.w3.org/2000/svg" viewBox="0 0 40.16 82.96">
  <defs>
    <style>
      .cls-1 {
        fill: #f2385a;
      }
    </style>
  </defs>
  <g id="Objects">
    <path class="cls-1" d="M40.15,10.09c-.3-5.53-4.81-10.09-10.35-10.09s-8.9,6.07-9.72,6.07c-.71,0-4.03-6.07-9.72-6.07S.31,4.56.02,10.09c-.17,3.12.84,5.5,2.26,7.65,2.3,3.49,10.88,10.96,15.43,13.65.17.1.5.52.5.96v23.13c0,.46-.19.46-.29.38-5.72-4.68-14.39-2.73-15.31-1.4-.98,1.41,3.42,4.05,7.09,11.11,1.94,3.73,5.5,6.14,8.22,6.24.1,0,.3.03.3.45v9.41c0,1.01.13,1.3.71,1.3h2.4c.62,0,.71-.39.71-1.34v-27.15c0-.4.16-.4.24-.39,2.24.22,5.4-1.95,6.93-5.32,2.63-5.79,6.02-8.07,5.19-9.15-.79-1.02-7.49-1.86-12.15,1.75-.07.06-.21.12-.21-.49v-8.52c0-.62.3-.86.45-.95,4.55-2.68,13.08-10.14,15.4-13.67,1.42-2.16,2.42-4.53,2.26-7.65ZM17.53,65.27c-.32.17-.73-.26-.85-.4-3.5-4.07-5.21-6.37-10.28-8.67-.13-.06-.32-.27-.21-.47.12-.24.44-.32.68-.32,3.34-.05,8.96,1.13,10.9,7.78.2.7.15,1.87-.24,2.08ZM23.23,46.33c1.98-5.36,5.9-6,7.98-5.88.19.01.68.1.71.2.06.16-.38.45-.47.51q-3.77,2.39-6.47,5.88c-.09.11-1.35,1.85-1.69,1.69-.33-.15-.34-1.65-.06-2.4ZM30.63,17.73c-1.69,2.57-8.96,8.68-10.54,8.68s-8.88-6.13-10.56-8.68c-.84-1.27-1.44-2.68-1.34-4.53.17-3.27,2.85-5.98,6.13-5.98s5.33,3.6,5.76,3.6c.48,0,2.53-3.6,5.76-3.6s5.96,2.7,6.13,5.98c.1,1.85-.5,3.25-1.34,4.53Z"/>
  </g>
</svg>