<?xml version="1.0" encoding="UTF-8"?>
<svg id="Layer_2" xmlns="http://www.w3.org/2000/svg" viewBox="0 0 28.26 76.21">
  <defs>
    <style>
      .cls-1 {
        fill: #f2385a;
      }
    </style>
  </defs>
  <g id="Objects">
    <path class="cls-1" d="M19.74,19.43c-.45-1.21-.82-6.8-.93-13.07,0-.02.03-.09.12-.09.5-.03.77-.42.77-.93V.95c0-.52-.43-.95-.95-.95h-9.24c-.52,0-.95.43-.95.95v4.39c0,.5.25.89.75.92.16,0,.15.11.14.16-.11,6.34-.48,11.8-.93,13.01C5.88,26.56,0,25.94,0,34.49v30.57c0,11.76,5.92,11.17,14.13,11.12,8.21.05,14.13.65,14.13-11.12v-30.57c0-8.55-5.88-7.93-8.52-15.06ZM22.8,49.82c-1.39,2.11-7.36,7.13-8.66,7.13s-7.3-5.04-8.68-7.13c-.69-1.05-1.18-2.2-1.1-3.72.14-2.69,2.34-4.91,5.04-4.91s4.38,2.95,4.73,2.95c.4,0,2.08-2.95,4.73-2.95s4.89,2.22,5.04,4.91c.08,1.52-.41,2.67-1.1,3.72Z"/>
  </g>
</svg>