<?xml version="1.0" encoding="UTF-8"?>
<svg id="Layer_2" xmlns="http://www.w3.org/2000/svg" viewBox="0 0 81.56 64.84">
  <defs>
    <style>
      .cls-1 {
        fill: #f2385a;
      }
    </style>
  </defs>
  <g id="Objects">
    <g>
      <path class="cls-1" d="M46.3,55c.28-.36.26-1.08-.05-1.41l-10.89-11.85c-.93-1.02-1.4-2.33-1.31-3.69.09-1.37.72-2.61,1.78-3.49l11.07-9.28c.35-.29.46-.98.22-1.36,0,0-5.63-9.9-7.89-12.94C36.65,7.52,30.22,0,21.05,0,9.81,0,.64,9.27.04,20.49c-.34,6.34,1.7,11.16,4.58,15.53,5.01,7.6,24.72,24.51,33.23,28.76.19.09.58.17,1.18-.55l7.27-9.23Z"/>
      <path class="cls-1" d="M81.53,20.49c-.6-11.22-9.78-20.49-21.01-20.49-7.37,0-12.94,5.47-16.33,9.13-.17.18-.52.61.07,1.47l6.71,10.97c1.4,2.29.88,5.44-1.18,7.17l-11.07,9.28c-.13.11-.17.24-.17.33,0,.09.01.22.13.35l10.89,11.85c1.81,1.97,1.93,5.16.28,7.26l-4.62,5.91c-.39.44-.23.46-.08.38,9.09-5.15,27.01-20.76,31.8-28.06,2.89-4.39,4.92-9.19,4.58-15.53Z"/>
    </g>
  </g>
</svg>