<?xml version="1.0" encoding="UTF-8"?>
<svg id="Layer_2" xmlns="http://www.w3.org/2000/svg" viewBox="0 0 100.01 61.72">
  <defs>
    <style>
      .cls-1 {
        fill: #f2385a;
      }
    </style>
  </defs>
  <g id="Objects">
    <path class="cls-1" d="M98.94,14.11l-2.65-2.3c-1.77-1.54-2.19-3.78-2.09-6.13l.15-3.51c.1-2.35-1.14-2.88-2.77-1.18l-7.44,9.41s-.48.49-.89.66c-1.05.45-3.34,1.38-4.5,1.88-.67.19-.87-.14-1.02-.34-3.31-4.5-8.53-7.46-14.42-7.46-9.51,0-15.55,10.6-16.97,10.6-1.25,0-7.04-10.6-16.97-10.6S11.81,13.12,11.29,22.77c-.29,5.45,1.47,9.6,3.94,13.36.42.64.97,1.37,1.62,2.15.25.3.76.8.14,1.21-2.18.94-3.57,1.53-5.41,2.32-.62.27-.97-.81-.97-.81-.52-1.2-1.68-1.41-2.58-.47l-7.52,7.86c-.9.94-.57,1.71.73,1.71l10.88-.04c1.31,0,1.95-.99,1.44-2.19,0,0-.55-.99.08-1.26,2.34-1,4.2-1.8,7.07-3.03.85-.47,1.12,0,1.29.16,8.4,8.17,21.02,17.98,24.37,17.98,4.65,0,26.09-18.01,31.07-25.59,2.48-3.78,4.24-7.91,3.94-13.36-.07-1.37-.3-2.71-.65-3.99-.08-.29-.36-.75.32-1.14,1.07-.46,3.29-1.36,4.26-1.77.44-.19,1.09-.19,1.09-.19l11.49,1.25c2.35,0,2.82-1.28,1.05-2.82Z"/>
  </g>
</svg>