<?xml version="1.0" encoding="UTF-8"?>
<svg id="Layer_2" xmlns="http://www.w3.org/2000/svg" viewBox="0 0 84.76 59.65">
  <defs>
    <style>
      .cls-1 {
        fill: #f2385a;
      }
    </style>
  </defs>
  <g id="Objects">
    <g>
      <path class="cls-1" d="M78.59,0H6.17C2.77,0,0,2.77,0,6.18v47.3c0,3.4,2.77,6.18,6.17,6.18h72.41c3.4,0,6.17-2.77,6.17-6.18V6.18c0-3.4-2.77-6.18-6.17-6.18ZM79.54,53.47c0,.51-.44.95-.95.95H6.17c-.51,0-.95-.44-.95-.95V6.18c0-.51.44-.95.95-.95h72.41c.51,0,.95.44.95.95v47.3Z"/>
      <path class="cls-1" d="M71.41,15.57c-2.22-.56-4.25,1.57-4.59,1.48-.29-.07-1.02-2.89-3.34-3.47-2.26-.57-4.57.83-5.26,3.06-.39,1.26-.22,2.33.14,3.35.72,2.05,4.71,7.54,5.77,7.81,1.09.27,7.15-2.68,8.76-4.16.8-.74,1.45-1.6,1.7-2.89.45-2.29-.93-4.61-3.19-5.18Z"/>
      <path class="cls-1" d="M42.54,12.01c-.98,0-1.78.8-1.78,1.78v32.06c0,.98.8,1.78,1.78,1.78s1.78-.8,1.78-1.78V13.79c0-.98-.8-1.78-1.78-1.78Z"/>
      <path class="cls-1" d="M32.09,14.9H13.41c-.98,0-1.78.8-1.78,1.78s.8,1.78,1.78,1.78h18.68c.98,0,1.78-.8,1.78-1.78s-.8-1.78-1.78-1.78Z"/>
      <path class="cls-1" d="M32.09,23.66H13.41c-.98,0-1.78.8-1.78,1.78s.8,1.78,1.78,1.78h18.68c.98,0,1.78-.8,1.78-1.78s-.8-1.78-1.78-1.78Z"/>
      <path class="cls-1" d="M32.09,32.42H13.41c-.98,0-1.78.8-1.78,1.78s.8,1.78,1.78,1.78h18.68c.98,0,1.78-.8,1.78-1.78s-.8-1.78-1.78-1.78Z"/>
      <path class="cls-1" d="M32.09,41.18h-6.65c-.98,0-1.78.8-1.78,1.78s.8,1.78,1.78,1.78h6.65c.98,0,1.78-.8,1.78-1.78s-.8-1.78-1.78-1.78Z"/>
      <path class="cls-1" d="M58.47,31.21c-2.32.58-3.05,3.4-3.34,3.47-.33.08-2.37-2.04-4.59-1.48-2.26.57-3.64,2.89-3.19,5.18.25,1.29.9,2.15,1.71,2.89,1.61,1.48,7.68,4.43,8.76,4.16,1.06-.27,5.06-5.76,5.78-7.81.36-1.02.53-2.1.14-3.35-.69-2.23-3-3.63-5.26-3.06Z"/>
    </g>
  </g>
</svg>