<?xml version="1.0" encoding="UTF-8"?>
<svg id="Layer_2" xmlns="http://www.w3.org/2000/svg" viewBox="0 0 75.07 79.52">
  <defs>
    <style>
      .cls-1 {
        fill: #f2385a;
      }
    </style>
  </defs>
  <g id="Objects">
    <g>
      <path class="cls-1" d="M75.04,36.12c0-1.13-.72-.66-.72-.66,0,0-19.83,13.37-27.1,18.2-.28.19-.62.41-1.02.41-.27,0-13.27.04-17.4.04-.66,0-.81-.08-1.02-.21-8.73-5.73-22.16-14.68-27.11-18.15-.58-.41-.68.23-.68.23v38.33c0,2.87,2.35,5.22,5.22,5.22h64.64c2.87,0,5.22-2.35,5.22-5.22,0,0-.03-27.51-.03-38.19Z"/>
      <path class="cls-1" d="M72.83,29.04c-.53-.37-27.72-23.53-34.01-28.36C38,.05,37.94,0,37.53,0c-.44,0-.5.08-1.39.77C29.67,5.81,2.87,28.97,2.56,29.29c-1.15,1.15-.42,1.89.32,2.41,2.15,1.5,5.33,3.58,9.76,6.5,5.58,3.68,11.09,7.42,15.93,10.66.5.34.96.47,1.39.47h14.88c.59,0,.96-.27,1.28-.49,6.78-4.55,26.68-17.91,26.68-17.91.33-.22,1-1.21.02-1.89ZM24.69,29.14c-.19.41-.37.81-.56,1.22-.3.65-.9,1.52-.5,2.24.09.16.22.28.37.37-1.86-.48-4.3-1.38-5.21-2-.72-.49-1.33-1.1-1.68-2.1-.61-1.76.21-3.76,1.94-4.46,1.04-.42,2.08-.1,2.82.23-.14.71-.26,1.43-.35,2.15-.08.69-.3,1.56.22,2.14.49.54,1.27.54,1.9.29.37-.15.81-.37,1.25-.45-.07.13-.13.25-.19.37ZM29.88,26.44c-.25,1.25-1.65,4.12-2.71,5.72-.17-.03-.33-.06-.5-.1-.33-.06-.66-.13-1-.19-.15-.03-.36-.05-.56-.08.03-.08.07-.15.1-.22l.35-.76c.23-.51.47-1.01.7-1.52.22-.47.54-1,.24-1.51-.27-.46-.85-.51-1.33-.51-.52,0-1.05.11-1.53.31-.23.09-.49.18-.71.3,0,0-.01,0-.02,0,.04-.2.02-.49.04-.67.03-.27.06-.53.1-.8.08-.58.19-1.16.32-1.73.05-.23,0-.42-.11-.58.31-.76.82-1.75,1.83-2.17,1.72-.71,3.71.14,4.51,1.83.45.95.44,1.82.27,2.67ZM33.97,12.24c.73-1.45,2.49-2.15,3.98-1.5,1.16.51,1.54,1.78,1.74,2.42.02.3.03.61.04.91,0,.2,0,.4,0,.6,0,.1-.03.34-.03.5-.19.04-.37.07-.56.1-.4.08-.81.15-1.21.22-.51.1-.64.7-.45,1.1.13.26.25.52.38.78.06.13.13.25.18.38-.02.01-.04.03-.05.04-.12.09-.24.18-.36.27l-.77.58c-.35.26-.7.52-1.04.78-.88-1.45-1.97-3.84-2.15-4.88-.13-.75-.12-1.51.29-2.33ZM36.76,20.61s0,0,0,0c.73-.55,1.46-1.09,2.19-1.64.5-.38.82-.8.63-1.46-.07-.25-.18-.49-.3-.73.21-.04.43-.08.64-.12.5-.09.96-.22,1.2-.72.2-.42.14-.96.14-1.42,0-.5-.03-.99-.06-1.49.6-.19,1.32-.3,2,0,1.49.65,2.17,2.42,1.6,3.94-.32.86-.87,1.38-1.51,1.8-1.28.83-5.8,2.16-6.52,1.85ZM41.42,39.31c-1.19-1.96-2.85-6.01-3.06-7.65-.13-1.06-.07-2.13.57-3.26,1.13-2,3.65-2.86,5.7-1.84,1.18.59,1.74,1.74,2.05,2.67-.63.36-1.26.72-1.86,1.12-.67.44-.99,1.17-.43,1.86.49.6,1.11,1.03,1.53,1.7.23.38.41.77.55,1.18-1.62-.25-3.21-.64-4.85-.23-.52.13-.77.89-.33,1.25.47.4.91.83,1.32,1.29.18.21.35.42.51.65.08.11.17.23.24.35.02.04.04.08.06.12-.03,0-.05,0-.08,0-.12.02-.24.03-.36.05-.29.05-.55.14-.82.26-.26.12-.51.27-.74.45ZM53.84,35.8c-.51,1.19-1.32,1.88-2.25,2.42-1.77,1.04-7.73,2.51-9.13,2.21.34-.22.72-.35,1.18-.41.73-.09,1.32-.55,1.31-1.35,0-.73-.52-1.34-.94-1.88-.17-.21-.35-.41-.54-.61,1.33.03,2.68.44,3.98.55.53.05.79-.51.72-.95-.22-1.34-.82-2.59-1.71-3.61-.2-.24-.43-.45-.66-.65.05-.04.1-.07.13-.08.48-.29.96-.57,1.44-.86.73-.23,2.74-1.29,4.47-.43,2.06,1.02,2.89,3.55,1.98,5.65Z"/>
    </g>
  </g>
</svg>