<?xml version="1.0" encoding="UTF-8"?>
<svg id="Layer_2" xmlns="http://www.w3.org/2000/svg" viewBox="0 0 89.77 35.22">
  <defs>
    <style>
      .cls-1 {
        fill: #f2385a;
      }
    </style>
  </defs>
  <g id="Objects">
    <g>
      <path class="cls-1" d="M41.01,1.41c-5.44,0-8.9,6.07-9.72,6.07-.72,0-4.03-6.07-9.72-6.07s-10.05,4.56-10.35,10.09c-.17,3.12.84,5.5,2.26,7.65,2.83,4.3,15.22,14.65,17.83,14.65s14.94-10.31,17.79-14.65c1.42-2.16,2.42-4.53,2.26-7.65-.3-5.53-4.81-10.09-10.35-10.09"/>
      <path class="cls-1" d="M2.61,35.22c-1.44,0-2.61-1.17-2.61-2.61V2.61C0,1.17,1.17,0,2.61,0s2.61,1.17,2.61,2.61v29.99c0,1.44-1.17,2.61-2.61,2.61Z"/>
      <path class="cls-1" d="M74.57,35.22h-1.9c-8.38,0-15.2-6.82-15.2-15.2V2.61c0-1.44,1.17-2.61,2.61-2.61s2.61,1.17,2.61,2.61v17.41c0,5.5,4.47,9.97,9.97,9.97h1.9c5.5,0,9.97-4.47,9.97-9.97V2.61c0-1.44,1.17-2.61,2.61-2.61s2.61,1.17,2.61,2.61v17.41c0,8.38-6.82,15.2-15.2,15.2Z"/>
    </g>
  </g>
</svg>