<?xml version="1.0" encoding="UTF-8"?>
<svg id="Layer_2" xmlns="http://www.w3.org/2000/svg" viewBox="0 0 88.29 74.28">
  <defs>
    <style>
      .cls-1 {
        fill: #f2385a;
      }
    </style>
  </defs>
  <g id="Objects">
    <path class="cls-1" d="M61.77,21.12c-6.48,0-12.38,2.38-17.03,6.21-.08.07-.12.02-.15,0-1.09-.92-2.26-1.77-3.51-2.52-.49-.3-.27-.61-.21-.73.17-.37.27-.78.27-1.21,0-1.61-1.31-2.92-2.92-2.92h-.36c-.69,0-.04-.88-.04-.88l4.57-7.89c.63-.9.6-2.36-.06-3.24l-3.86-6.32c-.67-.88-2.12-1.6-3.22-1.6h-16.78c-1.1,0-2.56.71-3.23,1.59l-3.84,6.22c-.67.87-.71,2.33-.08,3.24l4.96,8.51s.32.37-.18.37h-.61c-1.61,0-2.92,1.31-2.92,2.92,0,.47.11.91.3,1.3.05.1.18.3-.16.49C4.91,29.34,0,37.68,0,47.43c0,14.8,12.04,26.85,26.85,26.85,6.57,0,12.59-2.37,17.26-6.3.11-.09.42-.19.58-.05,4.71,4.07,10.58,6.24,17.08,6.24,14.63,0,26.52-11.9,26.52-26.52s-11.9-26.52-26.52-26.52ZM44.13,60c-2.42-3.52-3.9-7.76-3.9-12.35,0-4.85,1.61-9.32,4.32-12.93.06-.08.26-.13.37.01,2.58,3.56,4.02,7.97,4.02,12.7s-1.46,9.02-3.95,12.59c-.14.2-.6.34-.86-.02ZM4.76,47.43c0-12.18,9.91-22.09,22.09-22.09,5.24,0,10,1.91,13.86,4.9.46.28.39.8.28.94-3.59,4.53-5.74,10.25-5.74,16.46s2.21,11.46,5.43,16.05c.32.46.12.85-.04.98-3.78,3.02-8.57,4.84-13.78,4.84-12.18,0-22.09-9.91-22.09-22.09ZM61.77,69.19c-5.12,0-9.87-1.72-13.53-4.79-.25-.21-.2-.49-.04-.71,3.38-4.57,5.5-10.15,5.5-16.26s-1.86-11.49-5.12-15.87c-.15-.2-.28-.73.11-1.02,3.64-2.77,8.17-4.44,13.08-4.44,11.88,0,21.54,9.66,21.54,21.54s-9.66,21.54-21.54,21.54Z"/>
  </g>
</svg>