<?xml version="1.0" encoding="UTF-8"?>
<svg id="Layer_2" xmlns="http://www.w3.org/2000/svg" viewBox="0 0 56.67 77.09">
  <defs>
    <style>
      .cls-1 {
        fill: #f2385a;
      }
    </style>
  </defs>
  <g id="Objects">
    <path class="cls-1" d="M56.35,38.96c-1.1-3.7-4.98-5.8-8.68-4.71,0,0-.96.33-1.3.38-.4.06-2.36.69-3.51-.18-.21-.16-.46-.56-.06-.95,4.35-3.43,6.53-8.06,6.53-13.75,0-2.92-.4-5.04-1.69-7.49-.3-.64.13-.83.34-.94,1.99-1.02,3.33-3.01,3.33-5.29,0-3.33-2.87-6.03-6.41-6.03-2.29,0-4.31,1.13-5.44,2.83-.14.21-.49.6-1.22.21-2.96-1.56-5.53-2.02-9.18-2.02s-6.14.5-9.02,1.95c-.66.31-1.05-.28-1.28-.56-1.17-1.47-3.04-2.42-5.14-2.42-3.54,0-6.41,2.7-6.41,6.03,0,2.15,1.2,4.04,3.01,5.11.21.12.7.43.41.8-1.34,2.5-1.85,4.84-1.85,7.81,0,5.78,2.28,10.5,6.75,13.94.49.4.19.72.01.87-1.25.97-4.21.37-4.21.37l-2.24-.71c-3.68-1.16-7.6.88-8.76,4.55-1.16,3.68.88,7.6,4.55,8.76l1.1.35s.68.23.63.97c-.05.75-.04.76-.04,1.53,0,6.14,2.33,11.71,6.14,15.86.25.28.65.98.31,1.46-.71.99-.99,2.04-.98,3.35.03,3.37,2.78,6.07,6.15,6.04l7.53-.07c1.66-.02,3.56-1.78,4.25-1.78.58,0,2.69,1.86,4.42,1.85l7.53-.07c3.37-.03,6.07-2.78,6.04-6.15-.01-1.55-.53-3.03-1.56-4.02-.54-.51-.15-1.05.06-1.3,3.45-4.07,5.54-9.37,5.54-15.18,0-.95,0-1.29-.1-2.21-.15-.53.42-.77.52-.81,3.41-1.27,5-4.86,3.95-8.4ZM37.53,14.81c1.59,0,2.87,1.29,2.87,2.87s-1.29,2.87-2.87,2.87-2.87-1.29-2.87-2.87,1.29-2.87,2.87-2.87ZM29.27,25.31c1.57,0,2.85.71,2.85,1.58s-1.28,1.58-2.85,1.58-2.85-.71-2.85-1.58,1.28-1.58,2.85-1.58ZM21,14.81c1.59,0,2.87,1.29,2.87,2.87s-1.29,2.87-2.87,2.87-2.87-1.29-2.87-2.87,1.29-2.87,2.87-2.87ZM40.32,53.7c-1.77,2.69-9.39,9.09-11.04,9.09s-9.3-6.42-11.06-9.09c-.88-1.34-1.5-2.81-1.4-4.75.18-3.43,2.99-6.26,6.42-6.26s5.59,3.77,6.03,3.77c.51,0,2.65-3.77,6.03-3.77s6.24,2.83,6.42,6.26c.1,1.94-.52,3.4-1.4,4.75Z"/>
  </g>
</svg>