<?xml version="1.0" encoding="UTF-8"?>
<svg id="Layer_2" xmlns="http://www.w3.org/2000/svg" viewBox="0 0 70.41 69.35">
  <defs>
    <style>
      .cls-1 {
        fill: #f2385a;
      }
    </style>
  </defs>
  <g id="Objects">
    <g>
      <path class="cls-1" d="M42.56,33.35c-4.12,0-6.73,4.59-7.35,4.59-.54,0-3.05-4.59-7.35-4.59s-7.61,3.45-7.83,7.63c-.13,2.36.63,4.16,1.71,5.79,2.14,3.25,11.52,11.08,13.49,11.08s11.3-7.8,13.46-11.08c1.08-1.64,1.83-3.43,1.71-5.79-.22-4.18-3.64-7.63-7.83-7.63"/>
      <path class="cls-1" d="M15.15,0h3.27c1.7,0,3.08,1.38,3.08,3.08v10.77c0,1.7-1.38,3.08-3.08,3.08h-3.27c-1.7,0-3.08-1.38-3.08-3.08V3.08c0-1.7,1.38-3.08,3.08-3.08Z"/>
      <path class="cls-1" d="M52,0h3.27c1.7,0,3.08,1.38,3.08,3.08v10.77c0,1.7-1.38,3.08-3.08,3.08h-3.27c-1.7,0-3.08-1.38-3.08-3.08V3.08c0-1.7,1.38-3.08,3.08-3.08Z"/>
      <path class="cls-1" d="M67.74,8.46h-4.52c-.91,0-.84.79-.84.79v4.6c0,3.92-3.19,7.11-7.11,7.11h-3.27c-3.92,0-7.11-3.19-7.11-7.11v-4.66s.05-.73-.74-.73h-17.83c-.81,0-.78.76-.78.76v4.62c0,3.92-3.19,7.11-7.11,7.11h-3.27c-3.92,0-7.11-3.19-7.11-7.11v-4.66s.02-.72-.71-.72H2.67C1.2,8.46,0,9.66,0,11.14l.05,55.53c0,1.47,1.21,2.68,2.68,2.68h64.95c1.47,0,2.68-1.2,2.68-2.68l.05-55.53c0-1.47-1.2-2.68-2.67-2.68ZM65.14,61.44c0,1.47-1.2,2.68-2.68,2.68H7.96c-1.47,0-2.68-1.2-2.68-2.68v-31.43c0-1.47,1.2-2.68,2.68-2.68h54.5c1.47,0,2.68,1.2,2.68,2.68v31.43Z"/>
    </g>
  </g>
</svg>