<?xml version="1.0" encoding="UTF-8"?>
<svg id="Layer_2" xmlns="http://www.w3.org/2000/svg" viewBox="0 0 75.16 64.44">
  <defs>
    <style>
      .cls-1 {
        fill: #f2385a;
      }
    </style>
  </defs>
  <g id="Objects">
    <path class="cls-1" d="M60.71,6.74c-.58,0-.59.04-1.15.1-.59,0-.64-.36-.69-.54C57.22.09,50.38,0,42.18,0h-25.1C7.64,0,0,.11,0,9.54v37.83c0,9.43,7.64,17.07,17.07,17.07h25.1c8.65,0,15.72-5.94,16.84-14.29,0-.5.31-.47.43-.46.41.04.83.06,1.25.06,4,0,7.82-3.02,10.75-8.5,2.24-4.17,3.41-8.21,3.66-12.26.08-1.32.02-5.3.02-5.3,0-11.4-4.72-16.95-14.44-16.95ZM13.52,23.6c.24-4.51,3.93-8.24,8.45-8.24s7.35,4.96,7.94,4.96c.67,0,3.49-4.96,7.94-4.96s8.21,3.73,8.45,8.24c.14,2.55-.68,4.48-1.84,6.25-2.33,3.54-12.36,11.97-14.53,11.97s-12.25-8.45-14.56-11.97c-1.16-1.76-1.98-3.7-1.84-6.25ZM46.24,51.7H13.57c-1.31,0-2.36-1.06-2.36-2.36s1.06-2.36,2.36-2.36h32.67c1.31,0,2.36,1.06,2.36,2.36s-1.06,2.36-2.36,2.36ZM68.87,29c-.23,3.25-1.21,6.06-2.94,9.28-1.69,3.15-3.74,5.19-5.22,5.19-.37,0-.73-.03-1.09-.07-.12-.02-.36-.04-.36-.5V13.6c0-.44.33-.5.5-.52.31-.04.63-.06.96-.06,4.46,0,8.16.8,8.16,10.67,0,0,.09,3.98,0,5.31Z"/>
  </g>
</svg>