<?xml version="1.0" encoding="UTF-8"?>
<svg id="Layer_2" xmlns="http://www.w3.org/2000/svg" viewBox="0 0 85.77 85.77">
  <defs>
    <style>
      .cls-1 {
        fill: #f2385a;
      }
    </style>
  </defs>
  <g id="Objects">
    <g>
      <path class="cls-1" d="M52.81,28.67c-5.59,0-9.13,6.23-9.97,6.23-.73,0-4.13-6.23-9.97-6.23s-10.31,4.68-10.62,10.35c-.17,3.2.86,5.64,2.32,7.85,2.91,4.41,15.62,15.03,18.29,15.03s15.33-10.58,18.25-15.03c1.46-2.22,2.49-4.65,2.32-7.85-.3-5.67-4.94-10.35-10.62-10.35"/>
      <path class="cls-1" d="M48.96,6.11c0,3.38-2.74,6.11-6.11,6.11s-6.11-2.74-6.11-6.11,2.74-6.11,6.11-6.11,6.11,2.74,6.11,6.11Z"/>
      <path class="cls-1" d="M75.54,16.34c0,3.38-2.74,6.11-6.11,6.11s-6.11-2.74-6.11-6.11,2.74-6.11,6.11-6.11,6.11,2.74,6.11,6.11Z"/>
      <path class="cls-1" d="M85.77,42.93c0,3.38-2.74,6.11-6.11,6.11s-6.11-2.74-6.11-6.11,2.74-6.11,6.11-6.11,6.11,2.74,6.11,6.11Z"/>
      <path class="cls-1" d="M75.54,69.42c0,3.38-2.74,6.11-6.11,6.11s-6.11-2.74-6.11-6.11,2.74-6.11,6.11-6.11,6.11,2.74,6.11,6.11Z"/>
      <path class="cls-1" d="M48.94,79.65c0,3.37-2.74,6.11-6.11,6.11s-6.11-2.74-6.11-6.11,2.74-6.11,6.11-6.11,6.11,2.74,6.11,6.11Z"/>
      <path class="cls-1" d="M22.38,69.42c0,3.38-2.74,6.11-6.11,6.11s-6.11-2.74-6.11-6.11,2.74-6.11,6.11-6.11,6.11,2.74,6.11,6.11Z"/>
      <path class="cls-1" d="M12.22,42.93c0,3.38-2.74,6.11-6.11,6.11s-6.11-2.74-6.11-6.11,2.74-6.11,6.11-6.11,6.11,2.74,6.11,6.11Z"/>
      <path class="cls-1" d="M22.38,16.34c0,3.38-2.74,6.11-6.11,6.11s-6.11-2.74-6.11-6.11,2.74-6.11,6.11-6.11,6.11,2.74,6.11,6.11Z"/>
    </g>
  </g>
</svg>