<?xml version="1.0" encoding="UTF-8"?>
<svg id="Layer_2" xmlns="http://www.w3.org/2000/svg" viewBox="0 0 73.02 78.21">
  <defs>
    <style>
      .cls-1 {
        fill: #f2385a;
      }
    </style>
  </defs>
  <g id="Objects">
    <g>
      <path class="cls-1" d="M11.52,12.01l4.12,2.35c.32.18.66.27,1,.27.7,0,1.38-.37,1.76-1.02.55-.97.21-2.2-.75-2.75l-4.12-2.35c-.97-.55-2.2-.21-2.75.75-.55.97-.21,2.2.75,2.75Z"/>
      <path class="cls-1" d="M12.52,23.3c.34,0,.68-.09,1-.26l4.12-2.35c.97-.55,1.31-1.79.75-2.75-.55-.97-1.79-1.31-2.75-.75l-4.12,2.35c-.97.55-1.31,1.79-.75,2.75.37.65,1.05,1.02,1.76,1.02Z"/>
      <path class="cls-1" d="M68.73,4.1c-2.96-2.68-7.29-4.1-12.52-4.1-6.37,0-12.57,3.53-15.7,5.63-.57.38-4.24,2.9-6.37,5.47-.09.11-.13.17-.26.18-.13.01-.19-.04-.29-.12-1.57-1.27-4.11-2.1-6.96-2.1-4.77,0-4.58,2.31-4.58,5.16s-.18,4.99,4.1,5.15c.07,0,.21.01.21.35l-.04,3.13s0,.33-.36.33h-2.06c-.78,0-1.42.64-1.42,1.42v3.35s-.02.29-.1.39c-.12.15-.28.2-.47.25C9.34,31.62,0,42.94,0,56.44c0,8.55,6.73,21.77,13.96,21.77h29.32c8.04,0,14.04-13.13,14.04-21.77,0-12.93-8.56-23.85-20.31-27.43-.09-.03-.15-.05-.22-.15-.04-.07-.05-.26-.05-.26v-4.01c0-.78-.64-1.42-1.42-1.42h-2.05c-.3,0-.37-.42-.37-.42l-.09-4.49c0-.45.22-.59.33-.66.14-.1.28-.2.41-.3.09-.07.15-.07.26-.05.09.01.18.09.28.22,2.02,2.56,5.52,4.94,6.44,5.54,3.08,2.02,9.22,5.41,15.68,5.41,5.23,0,9.55-1.42,12.52-4.1,2.8-2.54,4.28-6.03,4.28-10.11s-1.48-7.58-4.28-10.11ZM36.01,42.64c4.19,0,7.61,3.45,7.83,7.63.13,2.36-.63,4.15-1.71,5.79-2.16,3.28-11.45,11.08-13.46,11.08s-11.34-7.83-13.49-11.08c-1.07-1.63-1.83-3.43-1.71-5.79.22-4.18,3.64-7.63,7.83-7.63s6.81,4.59,7.35,4.59c.62,0,3.23-4.59,7.35-4.59Z"/>
    </g>
  </g>
</svg>