<?xml version="1.0" encoding="UTF-8"?>
<svg id="Layer_2" xmlns="http://www.w3.org/2000/svg" viewBox="0 0 54.32 78.48">
  <defs>
    <style>
      .cls-1 {
        fill: #f2385a;
      }
    </style>
  </defs>
  <g id="Objects">
    <path class="cls-1" d="M0,30.6v46.2c0,.92.76,1.68,1.68,1.68h50.96c.92,0,1.68-.76,1.68-1.68V30.6c0-.92-.76-1.68-1.68-1.68-1.36,0-1.35-.14-1.35-.5,0-1.07,0-4.28,0-4.28C51.29,10.83,40.47,0,27.16,0,18.16,0,9.96,4.96,5.78,12.94c-.84,1.59-.22,3.57,1.37,4.4,1.6.84,3.57.22,4.4-1.37,3.06-5.82,9.03-9.44,15.61-9.44,9.71,0,17.61,7.9,17.61,17.61v4.14s.04.64-.59.64H1.68c-.92,0-1.68.76-1.68,1.68ZM11.75,50.91c.23-4.25,3.7-7.75,7.95-7.75,4.18,0,6.84,4.66,7.46,4.66.55,0,3.09-4.66,7.46-4.66,4.25,0,7.72,3.51,7.95,7.75.13,2.4-.65,4.22-1.73,5.88-2.18,3.3-11.69,11.25-13.69,11.25-2.04,0-11.47-7.92-13.66-11.25-1.09-1.66-1.86-3.48-1.73-5.88Z"/>
  </g>
</svg>