<?xml version="1.0" encoding="UTF-8"?>
<svg id="Layer_2" xmlns="http://www.w3.org/2000/svg" viewBox="0 0 83.02 74.88">
  <defs>
    <style>
      .cls-1 {
        fill: #f2385a;
      }
    </style>
  </defs>
  <g id="Objects">
    <path class="cls-1" d="M73.48,8.14c-6.86-2.12-13.57,4.18-14.6,3.87-.9-.28-2.71-9.21-9.88-11.42-6.97-2.15-14.43,1.84-16.95,8.68-1.42,3.87-1.08,7.25-.13,10.51,1.59,5.45,8.05,18.2,12.66,23.02.07.08.07.18-.07.3,0,0-3.66,2.25-4.61,3.3-.49.54-.1,1.32.6,1.53,0,0,3.74.32,5.82.72.07.01.17.06.11.27l-6.8,21.87s-.04.15-.1.18c-.05.02-.17-.11-.17-.11l-13.74-12.42c-.31-.28-.17-.32-.1-.33,1.32-.31,2.78-.59,2.78-.59.43-.17.63-.69.3-1-.66-.62-3.12-1.86-3.12-1.86-.05-.03-.11-.07-.07-.14,2.67-3.31,6.03-11.65,6.74-15.18.43-2.12.46-4.26-.64-6.62-1.95-4.18-6.87-6.3-11.15-4.58-4.21,1.7-4.99,7.47-5.62,7.73-.55.22-5.01-3.44-9.41-1.67-4.28,1.73-6.35,6.66-4.86,11.03.84,2.47,2.36,3.99,4.13,5.21,2.95,2.04,11.22,5.72,15.41,6.25.07.01.11.06.08.17,0,0-.9,2.57-.95,3.46-.03.46.48.69.91.51,0,0,1.58-1.04,2.74-1.74.07-.04.09-.05.22.07l17.16,15.51s.28.24.45.2c.17-.05.27-.4.27-.4l7.72-24.81c.07-.19.14-.17.18-.16,2.16.98,5.13,2.58,5.13,2.58.7.21,1.46-.21,1.36-.93-.2-1.42-1.97-5.38-1.97-5.38-.03-.08-.06-.2.06-.23,6.57-1.4,19-8.28,23.4-11.9,2.63-2.17,4.81-4.76,5.82-8.76,1.78-7.07-2.14-14.58-9.11-16.73ZM8.28,38.56c-2.05.83-3.11,3.26-2.37,5.43.38,1.1,1.02,1.9,2.14,2.68.54.37.67,1.11.3,1.65-.23.33-.6.51-.98.51-.23,0-.47-.07-.67-.21-.97-.67-2.33-1.79-3.04-3.86-1.16-3.4.47-7.09,3.73-8.4.61-.25,1.3.05,1.55.66.25.61-.05,1.3-.66,1.55ZM50.15,6.83c-.29.94-1.29,1.47-2.23,1.18-3.4-1.05-7.2.92-8.47,4.38-.64,1.75-.66,3.39-.04,5.5.28.94-.27,1.93-1.21,2.21-.17.05-.33.07-.5.07-.77,0-1.48-.51-1.71-1.28-.52-1.77-1.07-4.51.12-7.73,1.95-5.3,7.6-8.18,12.87-6.55.94.29,1.47,1.29,1.18,2.23Z"/>
  </g>
</svg>