<?xml version="1.0" encoding="UTF-8"?>
<svg id="Layer_2" xmlns="http://www.w3.org/2000/svg" viewBox="0 0 66.47 76.67">
  <defs>
    <style>
      .cls-1 {
        fill: #f2385a;
      }
    </style>
  </defs>
  <g id="Objects">
    <g>
      <path class="cls-1" d="M60.04,20.79c-.11-.16-.07-.3-.09-.5-.76-6.68-6.42-11.87-13.3-11.87-2.37,0-4.6.62-6.53,1.71-.26.15-.45.32-.73.24-.26-.08-.26-.28-.39-.52C36.09,4.01,30.08,0,23.13,0,13.36,0,5.44,7.92,5.44,17.69c0,.92.07,1.82.21,2.7.04.28.14.5.02.75-.07.16-.18.25-.33.34-3.2,1.95-5.33,5.46-5.33,9.48,0,6.12,4.96,11.09,11.09,11.09h44.3c6.12,0,11.09-4.96,11.09-11.09,0-4.35-2.51-8.11-6.16-9.92-.1-.05-.21-.15-.27-.25Z"/>
      <g>
        <path class="cls-1" d="M26.33,55.86c0-.08-.07-.17-.15-.19l-2.72-.52c-.23-.04-.43-.18-.56-.38-.13-.2-.17-.43-.11-.66l.58-2.42c.02-.08-.04-.18-.11-.21,0,0-1.79-.79-2.42-.98-.71-.21-2.37-.6-3.63.34-1.55,1.15-1.87,3.37-.8,4.98.6.91,1.38,1.37,2.23,1.68,1.47.54,5.93.86,7.54.57.04,0,.1-.04.11-.2l.06-2.02Z"/>
        <path class="cls-1" d="M27.65,47.48c-1.23-1.49-3.45-1.83-5-.68-1.02.75-1.23,2.08-1.32,2.93,0,.04,0,.14.16.2l2.05.83c.43.17.68.66.57,1.11l-.58,2.42s0,.05,0,.06c0,.01.02.03.05.03l2.72.52c.45.09.8.52.78.98l-.03,1.29c0,.1.02.09.03.06.73-1.64,1.6-5.64,1.51-7.13-.05-.9-.26-1.77-.96-2.62Z"/>
      </g>
      <g>
        <path class="cls-1" d="M46.96,57.93c0-.08-.07-.17-.15-.19l-2.72-.52c-.23-.04-.43-.18-.56-.38-.13-.2-.17-.43-.11-.66l.58-2.42c.02-.08-.04-.18-.11-.21,0,0-1.79-.79-2.42-.98-.71-.21-2.37-.6-3.63.34-1.55,1.15-1.87,3.37-.8,4.98.6.91,1.38,1.37,2.23,1.68,1.47.54,5.93.86,7.54.57.04,0,.1-.04.11-.2l.06-2.02Z"/>
        <path class="cls-1" d="M48.28,49.55c-1.23-1.49-3.45-1.83-5-.68-1.02.75-1.23,2.08-1.32,2.93,0,.04,0,.14.16.2l2.05.83c.43.17.68.66.57,1.11l-.58,2.42s0,.05,0,.06c0,.01.02.03.05.03l2.72.52c.45.09.8.52.78.98l-.03,1.29c0,.1.02.09.03.06.73-1.64,1.6-5.64,1.51-7.13-.05-.9-.26-1.77-.96-2.62Z"/>
      </g>
      <g>
        <path class="cls-1" d="M35.38,74.34c0-.08-.07-.17-.15-.19l-2.72-.52c-.23-.04-.43-.18-.56-.38-.13-.2-.17-.43-.11-.66l.58-2.42c.02-.08-.04-.18-.11-.21,0,0-1.79-.79-2.42-.98-.71-.21-2.37-.6-3.63.34-1.55,1.15-1.87,3.37-.8,4.98.6.91,1.38,1.37,2.23,1.68,1.47.54,5.93.86,7.54.57.04,0,.1-.04.11-.2l.06-2.02Z"/>
        <path class="cls-1" d="M36.71,65.97c-1.23-1.49-3.45-1.83-5-.68-1.02.75-1.23,2.08-1.32,2.93,0,.04,0,.14.16.2l2.05.83c.43.17.68.66.57,1.11l-.58,2.42s0,.05,0,.06c0,.01.02.03.05.03l2.72.52c.45.09.8.52.78.98l-.03,1.29c0,.1.02.09.03.06.73-1.64,1.6-5.64,1.51-7.13-.05-.9-.26-1.77-.96-2.62Z"/>
      </g>
    </g>
  </g>
</svg>