<?xml version="1.0" encoding="UTF-8"?>
<svg id="Layer_2" xmlns="http://www.w3.org/2000/svg" viewBox="0 0 60.99 82.15">
  <defs>
    <style>
      .cls-1 {
        fill: #f2385a;
      }
    </style>
  </defs>
  <g id="Objects">
    <g>
      <path class="cls-1" d="M21.97,9.83c-1.53,0-2.49,1.7-2.72,1.7-.2,0-1.13-1.7-2.72-1.7s-2.82,1.28-2.9,2.83c-.05.88.24,1.54.63,2.14.79,1.2,4.27,4.11,5,4.11s4.19-2.89,4.99-4.11c.4-.61.68-1.27.63-2.14-.08-1.55-1.35-2.83-2.9-2.83"/>
      <path class="cls-1" d="M40.24,20.94c-1.93,0-3.15,2.15-3.44,2.15-.25,0-1.43-2.15-3.44-2.15s-3.56,1.61-3.66,3.57c-.06,1.1.3,1.95.8,2.71,1,1.52,5.39,5.18,6.31,5.18s5.28-3.65,6.29-5.18c.5-.76.86-1.6.8-2.71-.1-1.96-1.7-3.57-3.66-3.57"/>
      <path class="cls-1" d="M36.45,0c-1.23,0-2.02,1.38-2.2,1.38-.16,0-.91-1.38-2.2-1.38s-2.28,1.03-2.34,2.29c-.04.71.19,1.25.51,1.73.64.97,3.45,3.32,4.04,3.32s3.38-2.34,4.03-3.32c.32-.49.55-1.03.51-1.73-.07-1.25-1.09-2.29-2.34-2.29"/>
      <g>
        <path class="cls-1" d="M51.65,47.27c-1.93,1.31-3.96,2.69-6.08,4.1-1.06.71-2.14,1.42-3.23,2.13-1.09.72-2.2,1.44-3.32,2.16-1.02.66-2.04,1.32-3.08,1.98-.14.09-.23.16-.23.26,0,.13.09.17.23.26,1.46.93,2.91,1.85,4.34,2.78.56.36,1.12.72,1.67,1.08.55.36,1.1.72,1.65,1.08,1.09.72,2.18,1.42,3.23,2.13,2.12,1.41,4.16,2.78,6.08,4.1,1.92,1.32,3.73,2.57,5.4,3.75.94.67,1.5,1.06,2.34,1.66,0,0,.34.28.34-.08v-33.45s0-.06,0-.09c0-.13-.11-.39-.6.02-1.18.86-1.93,1.39-3.35,2.38-1.67,1.17-3.48,2.43-5.4,3.75Z"/>
        <path class="cls-1" d="M6.41,39.87c1.78.99,3.69,2.08,5.71,3.25,2.02,1.17,4.14,2.41,6.32,3.71,1.09.65,2.2,1.32,3.32,1.99,1.12.68,2.25,1.36,3.39,2.06,1.8,1.1,3.6,2.22,5.41,3.35.13.08.23.15.38.15.14,0,.24-.06.36-.13,1.51-.95,3.03-1.88,4.53-2.8,1.14-.7,2.27-1.39,3.39-2.06,1.12-.68,2.22-1.35,3.32-1.99,2.18-1.3,4.31-2.54,6.32-3.71,2.02-1.17,3.94-2.26,5.71-3.25,1.61-.9,2.62-1.46,3.97-2.19.35-.2.31-.52.21-.64-.62-.74-1.55-1.21-2.59-1.21H4.81c-.88,0-1.68.34-2.28.9-.1.09-.16.36.26.58,1.27.69,2.12,1.17,3.62,2.01Z"/>
        <path class="cls-1" d="M55.84,76.16c-1.78-1-3.69-2.08-5.71-3.25-2.02-1.17-4.14-2.41-6.32-3.71-1.09-.65-2.2-1.32-3.32-1.99-.56-.34-1.12-.68-1.69-1.02-.56-.35-1.13-.69-1.7-1.04-1.98-1.2-3.86-2.39-5.85-3.63-.06-.04-.18-.09-.29-.09-.1,0-.22.05-.28.09-2.3,1.44-4.49,2.82-6.77,4.21-.57.35-1.13.7-1.7,1.04-.57.34-1.13.68-1.69,1.02-1.12.68-2.22,1.35-3.32,1.99-2.18,1.3-4.3,2.54-6.32,3.71-2.02,1.17-3.94,2.25-5.71,3.25-1.33.74-1.65.93-2.81,1.56-.9.53-.9.87-.87,1.05.27,1.59,1.67,2.82,3.34,2.82h51.37c1.86,0,3.39-1.52,3.39-3.39,0,0,.01-.18,0-.24-.08-.35-.86-.77-.86-.77-1.15-.63-1.54-.85-2.87-1.59Z"/>
        <path class="cls-1" d="M8.08,69.89c1.93-1.31,3.96-2.69,6.08-4.1,1.06-.71,2.14-1.41,3.23-2.13.55-.36,1.1-.72,1.65-1.08.56-.36,1.11-.72,1.67-1.08,1.73-1.12,3.49-2.24,5.26-3.36.13-.08.14-.15.14-.24,0-.07-.03-.17-.17-.26-1.33-.85-2.66-1.7-3.97-2.55-1.12-.72-2.23-1.45-3.32-2.16-1.09-.72-2.18-1.42-3.23-2.13-2.12-1.41-4.16-2.78-6.08-4.1-1.92-1.32-3.73-2.57-5.4-3.75-1.37-.97-2.12-1.47-3.27-2.31-.34-.25-.6-.15-.62-.02-.03.19-.05.38-.05.58v33.64s.12.59.78.14c.79-.53.95-.68,1.9-1.35,1.66-1.17,3.48-2.43,5.4-3.75Z"/>
      </g>
    </g>
  </g>
</svg>