<?xml version="1.0" encoding="UTF-8"?>
<svg id="Layer_2" xmlns="http://www.w3.org/2000/svg" viewBox="0 0 89.74 57.29">
  <defs>
    <style>
      .cls-1 {
        fill: #f2385a;
      }
    </style>
  </defs>
  <g id="Objects">
    <path class="cls-1" d="M88.34,19.04c-1.7-3.91-4.77-6.91-8.63-8.46-1.48-.59-3.08-.89-4.76-.89-3.84,0-7.32,1.56-9.56,2.63-1.16-3.23-3.5-8.88-9.26-11.19-1.86-.75-3.82-1.12-5.82-1.12-6.38,0-12.26,3.79-14.98,9.65-.15.32-.28.63-.41.95-.15.37-.21,1-.87,1.21-4.68,1.09-7.68,5.54-9.36,8.33-2.22-1.63-5.83-4-10.28-4-.84,0-1.67.09-2.49.26-3.8.79-7.11,3.05-9.31,6.36C.46,26-.41,29.91.18,33.75c.76,4.92,3.37,8.01,5.27,9.9,2.57,2.55,8.32,6.05,12.86,8.47,3.61,1.93,10.13,5.17,13.18,5.17h0c.32,0,.61-.03.89-.09.8-.17,3.23-.67,10.49-9.79.72-.9,1.25-1.58,2-2.59.19-.29.3-.18.34-.12,3.03,4.5,4.45,5.07,5.02,5.3.6.24,1.31.35,2.19.36h0c5.87,0,23.48-5.92,28.98-9.75,2.57-1.79,5.74-4.48,7.44-9.48,1.35-3.95,1.16-8.24-.51-12.08ZM46.74,32.1c-.24.62-.61,1.41-1.15,2.29-.16.27-.33.14-.36.09-3.06-5.69-5.42-11.2-5.97-13.87-.3-1.45-.43-2.4-.39-3.63.01-.4.26-.32.38-.3,3.81.63,7.11,3.6,8.15,7.51.69,2.59.48,4.96-.68,7.92ZM39.14,43.7c-4.08,5.18-6.86,7.78-7.82,8.35-1.12-.14-4.72-1.43-10.55-4.55-5.2-2.78-9.87-5.82-11.62-7.56-2.25-2.24-3.38-4.32-3.79-6.98-.81-5.26,2.62-10.4,7.64-11.45.47-.1.94-.15,1.42-.15,3.21,0,6.12,2.18,7.85,3.49,1.18.89,1.96,1.47,3.07,1.47h0c.19,0,.38-.02.57-.06,1.39-.29,2.04-1.38,2.94-2.9.99-1.66,2.47-4.15,4.63-5.6.06-.04.26-.18.21.36.04,1.53.24,2.4.47,3.52.81,3.99,4.06,10.85,6.83,15.95.4.74.61,1.12.98,1.77.17.32.09.45.04.51-.89,1.24-1.86,2.53-2.87,3.82ZM83.9,29.44c-.96,2.82-2.6,4.87-5.48,6.88-4.62,3.21-21.14,8.81-26,8.81-.1,0-.18,0-.23,0-.61-.5-1.75-1.86-3.64-4.9-.2-.36-.14-.44-.1-.49,1.38-2.11,2.53-4.13,3.15-5.71,1.07-2.71,2.13-6.42.87-11.18-1.58-5.95-5.61-10.17-11.42-11.15-.99-.18-.62-.57-.51-.76,2.02-3.5,5.75-5.71,9.76-5.71,1.34,0,2.64.25,3.88.75,4,1.6,5.58,6.08,6.52,8.76.57,1.63.99,2.8,2.31,3.34.34.14.71.21,1.1.21h0c.94,0,1.76-.4,3.13-1.05,1.92-.92,4.81-2.31,7.7-2.31,1.02,0,1.94.17,2.81.52,5.29,2.12,8.05,8.41,6.14,14.01Z"/>
  </g>
</svg>