<?xml version="1.0" encoding="UTF-8"?>
<svg id="Layer_2" xmlns="http://www.w3.org/2000/svg" viewBox="0 0 75.07 79.52">
  <defs>
    <style>
      .cls-1 {
        fill: #f2385a;
      }
    </style>
  </defs>
  <g id="Objects">
    <g>
      <path class="cls-1" d="M75.04,36.12c0-1.13-.72-.66-.72-.66,0,0-19.83,13.37-27.1,18.2-.28.19-.62.41-1.02.41-.27,0-13.27.04-17.4.04-.66,0-.81-.08-1.02-.21-8.73-5.73-22.16-14.68-27.11-18.15-.58-.41-.68.23-.68.23v38.33c0,2.87,2.35,5.22,5.22,5.22h64.64c2.87,0,5.22-2.35,5.22-5.22,0,0-.03-27.51-.03-38.19Z"/>
      <path class="cls-1" d="M72.83,29.04c-.53-.37-27.72-23.53-34.01-28.36C38,.05,37.94,0,37.53,0c-.44,0-.5.08-1.39.77C29.67,5.81,2.87,28.97,2.56,29.29c-1.15,1.15-.42,1.89.32,2.41,2.15,1.5,5.33,3.58,9.76,6.5,5.58,3.68,11.09,7.42,15.93,10.66.5.34.96.47,1.39.47h14.88c.59,0,.96-.27,1.28-.49,6.78-4.55,26.68-17.91,26.68-17.91.33-.22,1-1.21.02-1.89ZM29.88,26.44c-.34,1.71-2.85,6.49-3.68,6.83-.81.33-5.99-1.31-7.42-2.29-.72-.49-1.33-1.1-1.68-2.1-.61-1.76.21-3.76,1.94-4.46,1.77-.73,3.58.74,3.8.65.25-.1.56-2.44,2.25-3.13,1.72-.71,3.71.14,4.51,1.83.45.95.44,1.82.27,2.67ZM36.76,20.61c-.7-.31-2.82-4.56-3.08-6.05-.13-.75-.12-1.51.29-2.33.73-1.45,2.49-2.15,3.98-1.5,1.53.67,1.71,2.7,1.9,2.78.22.1,1.87-1.13,3.33-.49,1.49.65,2.17,2.42,1.6,3.94-.32.86-.87,1.38-1.51,1.8-1.28.83-5.8,2.16-6.52,1.85ZM53.84,35.8c-.51,1.19-1.32,1.88-2.25,2.42-1.86,1.09-8.32,2.65-9.31,2.16-.97-.48-3.66-6.61-3.92-8.72-.13-1.06-.07-2.13.57-3.26,1.13-2,3.65-2.86,5.7-1.84,2.11,1.05,2.23,3.91,2.49,4.05.3.15,2.7-1.47,4.73-.47,2.06,1.02,2.89,3.55,1.98,5.65Z"/>
    </g>
  </g>
</svg>