<?xml version="1.0" encoding="UTF-8"?>
<svg id="Layer_2" xmlns="http://www.w3.org/2000/svg" viewBox="0 0 59.27 80.35">
  <defs>
    <style>
      .cls-1 {
        fill: #f2385a;
      }
    </style>
  </defs>
  <g id="Objects">
    <path class="cls-1" d="M59.26,76.79l-3.91-51.51c-.16-1.96-1.89-3.57-3.86-3.57h-3.89c-.22,0-.2-.12-.19-.18.21-1.26.37-2.38.44-3.16.39-4.46-1.14-8.81-4.3-12.27-3.55-3.88-8.63-6.1-13.92-6.1s-10.37,2.23-13.92,6.1c-3.16,3.46-4.69,7.81-4.3,12.27.07.74.22,1.79.41,2.98.02.12.1.36-.31.36h-3.73c-1.97,0-3.7,1.61-3.86,3.57L.01,76.79c-.16,1.96,1.33,3.57,3.29,3.57h52.66c1.97,0,3.45-1.6,3.3-3.57ZM14.76,18.08c-.31-3.51.91-6.96,3.43-9.71,2.88-3.14,7.16-5.02,11.45-5.02s8.57,1.87,11.45,5.02c2.52,2.75,3.74,6.2,3.43,9.71-.07.8-.25,2.03-.49,3.41-.01.07-.02.22-.34.22H15.64c-.31,0-.39-.2-.4-.3-.23-1.35-.41-2.54-.47-3.33ZM12.04,31.28c0-.92.36-1.75.94-2.37.06-.07.23-.22.26.09.27,1.38.42,2.06.44,2.18.19.91,1.08,1.49,1.98,1.3.91-.19,1.49-1.08,1.3-1.98,0-.03-.15-.73-.45-2.21-.07-.25.12-.28.2-.24,1.3.5,2.22,1.75,2.22,3.23,0,1.91-1.55,3.46-3.46,3.46s-3.46-1.55-3.46-3.46ZM44.29,55.94c-2.35,3.57-12.45,12.05-14.64,12.05s-12.34-8.52-14.67-12.05c-1.17-1.77-2-3.73-1.86-6.29.24-4.55,3.96-8.3,8.51-8.3s7.41,4.99,8,4.99c.67,0,3.51-4.99,8-4.99s8.27,3.76,8.51,8.3c.14,2.57-.69,4.52-1.86,6.29ZM43.78,34.74c-1.91,0-3.46-1.55-3.46-3.46,0-1.5.96-2.78,2.3-3.25.06-.02.23-.08.14.23-.29,1.48-.45,2.22-.46,2.25-.19.91.39,1.79,1.3,1.98.11.02.23.04.34.04.78,0,1.48-.54,1.64-1.34.03-.12.17-.83.45-2.21.07-.24.2-.12.27-.04.57.62.92,1.44.92,2.35,0,1.91-1.55,3.46-3.46,3.46Z"/>
  </g>
</svg>