<?xml version="1.0" encoding="UTF-8"?>
<svg id="Layer_2" xmlns="http://www.w3.org/2000/svg" viewBox="0 0 66.99 66.99">
  <defs>
    <style>
      .cls-1 {
        fill: #f2385a;
      }
    </style>
  </defs>
  <g id="Objects">
    <g>
      <path class="cls-1" d="M32.95,25.17c-2.18,2.18-1.13,5.99-1.46,6.32-.29.29-4.04-.82-6.32,1.46-2.22,2.22-2.2,5.85-.1,8.18,1.18,1.32,2.54,1.86,3.97,2.16,2.86.59,11.96-.23,13-1.27,1.06-1.07,1.85-10.11,1.26-12.99-.3-1.43-.84-2.78-2.16-3.97-2.33-2.09-5.97-2.11-8.18.1"/>
      <path class="cls-1" d="M66.41,35.56L32.61,1.76c-.77-.77-2.29-1.37-3.38-1.33L2.06,0C.97.04.04.97,0,2.06l.43,27.17c-.04,1.09.56,2.61,1.33,3.38l33.8,33.8c.77.77,2.03.77,2.8,0l28.05-28.05c.77-.77.77-2.03,0-2.8ZM4.09,8.12c-1.11-1.11-1.11-2.91,0-4.02,1.11-1.11,2.91-1.11,4.02,0,1.11,1.11,1.11,2.91,0,4.02-1.11,1.11-2.91,1.11-4.02,0ZM60.19,38.45l-21.74,21.74c-.77.77-2.03.77-2.8,0L7.61,32.15c-.77-.77-.77-2.03,0-2.81L29.35,7.61c.77-.77,2.03-.77,2.8,0l28.04,28.04c.77.77.77,2.03,0,2.81Z"/>
    </g>
  </g>
</svg>