<?xml version="1.0" encoding="UTF-8"?>
<svg id="Layer_2" xmlns="http://www.w3.org/2000/svg" viewBox="0 0 89.74 57.29">
  <defs>
    <style>
      .cls-1 {
        fill: #f2385a;
      }
    </style>
  </defs>
  <g id="Objects">
    <path class="cls-1" d="M88.34,19.04c-1.7-3.91-4.77-6.91-8.63-8.46-1.48-.59-3.08-.89-4.76-.89-3.84,0-7.32,1.56-9.56,2.63-1.16-3.23-3.5-8.88-9.26-11.19-1.86-.75-3.82-1.12-5.82-1.12-6.38,0-12.26,3.79-14.98,9.65-.15.32-.28.63-.41.95-.15.37-.21,1-.88,1.21-4.68,1.09-7.68,5.54-9.36,8.33-2.22-1.63-5.83-4-10.28-4-.84,0-1.67.09-2.49.26-3.8.79-7.11,3.05-9.31,6.36C.46,26-.41,29.91.18,33.75c.76,4.92,3.37,8.01,5.27,9.9,2.57,2.55,8.32,6.05,12.86,8.47,3.61,1.93,10.13,5.17,13.18,5.17h0c.32,0,.61-.03.89-.09.8-.17,3.23-.67,10.49-9.79.72-.9,1.25-1.58,2-2.59.19-.29.3-.18.34-.12,3.03,4.5,4.45,5.07,5.02,5.3.59.24,1.31.35,2.19.36h0c5.87,0,23.48-5.92,28.98-9.75,2.57-1.79,5.74-4.48,7.44-9.48,1.35-3.95,1.16-8.24-.51-12.08ZM40.54,10.93c2.02-3.5,5.75-5.71,9.76-5.71,1.34,0,2.64.25,3.88.75,4,1.6,5.58,6.08,6.52,8.76.24.68.45,1.27.72,1.78.06,1.19.12,2.38.17,3.57.04.9.09,1.79.13,2.69.01.23-.06,1.23-.02,1.88-.26.07-.54.2-.72.24-.88.23-1.75.46-2.63.68-1.69.44-4.07.65-4.86,2.47-.7,1.62.18,3.45.75,4.98.32.84.66,1.67,1.02,2.49.21.47.71,1.19.82,1.75-.04.05-.11.14-.27.23-.79.44-1.52,1.07-2.26,1.58-1.32.92-2.65,1.85-3.97,2.77-.32-.48-.67-1.01-1.05-1.63-.2-.36-.14-.44-.1-.49,1.38-2.11,2.53-4.13,3.15-5.71,1.07-2.71,2.13-6.42.87-11.18-1.58-5.95-5.61-10.17-11.42-11.15-.99-.18-.62-.57-.51-.76ZM30.09,43.46c-.16.42-.31.84-.45,1.27-.31.92-.57,1.85-.79,2.8-.27,1.17-.47,2.35-.62,3.54-1.81-.72-4.31-1.87-7.47-3.56-5.2-2.78-9.87-5.82-11.62-7.56-2.25-2.24-3.38-4.32-3.79-6.98-.81-5.26,2.62-10.4,7.64-11.45.47-.1.94-.15,1.42-.15,3.21,0,6.12,2.18,7.85,3.49.66.5,1.2.88,1.74,1.14l3.5,3.74c-.8.42-1.58.87-2.33,1.38-1.77,1.21-4.55,2.9-3.91,5.45.57,2.26,3.2,2.81,4.99,3.76,1.31.69,2.85,1.48,4.04,2.49-.08.23-.15.52-.19.64ZM42,39.88c-.89,1.24-1.86,2.53-2.87,3.82-2.4,3.06-4.35,5.21-5.75,6.58.16-.92.37-1.83.62-2.73.55-1.96,2.23-4.55,1.25-6.55-.86-1.76-3.19-3.05-4.82-4.04-.85-.52-1.73-1-2.62-1.44-.07-.04-.15-.07-.23-.1.44-.26.86-.49,1.18-.68,1.15-.7,2.35-1.29,3.61-1.76,1.77-.65,2.46-2.73,1.1-4.18-1.6-1.71-3.21-3.42-4.81-5.13.06-.1.12-.19.18-.3.99-1.66,2.47-4.15,4.63-5.6.06-.04.26-.18.21.36.04,1.53.24,2.4.47,3.52.81,3.99,4.06,10.85,6.83,15.95.4.74.61,1.12.98,1.77.17.32.09.45.04.51ZM46.74,32.1c-.24.62-.61,1.41-1.15,2.29-.16.27-.33.14-.36.09-3.06-5.69-5.42-11.2-5.97-13.87-.3-1.45-.43-2.4-.39-3.63.01-.4.26-.32.38-.3,3.81.63,7.11,3.6,8.15,7.51.69,2.59.48,4.96-.68,7.92ZM83.9,29.44c-.96,2.82-2.6,4.87-5.48,6.88-4.26,2.96-18.65,7.96-24.67,8.71.98-.68,1.96-1.37,2.93-2.05,1.42-.99,3.1-1.94,3.94-3.53.99-1.89.27-3.65-.56-5.42-.51-1.09-1-2.24-1.4-3.4,1.21-.32,2.44-.6,3.65-.91,1.95-.51,3.76-1.18,4.34-3.33.46-1.74.07-3.8-.02-5.57-.05-1.08-.1-2.15-.16-3.23.24-.11.49-.23.77-.37,1.92-.92,4.81-2.31,7.7-2.31,1.02,0,1.94.17,2.81.52,5.29,2.12,8.05,8.41,6.14,14.01Z"/>
  </g>
</svg>